# xmcd
#
# Track frame offsets:
#	150
#	17170
#	30197
#	50290
#	62695
#	80700
#	94937
#	110882
#	125860
#	138962
#	155255
#	173025
#	189982
#	209315
#
# Disc length: 2978 seconds
#
# Revision: 2
# Processed by: cddbd v1.5.2PL0 Copyright (c) Steve Scherf et al.
# Submitted via: EasyCDDAExtractor 8.1.2.3
#
DISCID=bb0ba00e
DTITLE=Nisse Hellberg - Snackbar blues
DYEAR=2006
DGENRE=Blues
TTITLE0=Snackbar blues
TTITLE1=Tufft jobb
TTITLE2=Låt kvasten gå
TTITLE3=En stad som aldrig vaknar
TTITLE4=Det kokar ner till ren blues
TTITLE5=Kärlekens express
TTITLE6=Vår egen stad
TTITLE7=Lyckliga gatan
TTITLE8=Grön December
TTITLE9=Bättre och bättre dag för dag
TTITLE10=Blues håll dej undan från mitt hus
TTITLE11=Söders största hopp
TTITLE12=En man för varje öppet hak
TTITLE13=Trettifyran
EXTD=
EXTT0=
EXTT1=
EXTT2=
EXTT3=
EXTT4=
EXTT5=
EXTT6=
EXTT7=
EXTT8=
EXTT9=
EXTT10=
EXTT11=
EXTT12=
EXTT13=
PLAYORDER=
